PathFileType	4	(X/Y/Z)	C:\Users\u0145647\OneDrive - KU Leuven\KU Leuven\c3d2osim\CP4\T0\Data\Processed\ViconC3D_CP4_2\CP4_T0_09_gapFilled.trc
DataRate	CameraRate	NumFrames	NumMarkers	Units	OrigDataRate	OrigDataStartFrame	OrigNumFrames
100.000000	100.000000	7	47	mm	100.000000	474	631
Frame#	Time	C7			T10			CLAV			STRN			LSHO			RSHO			RBAK			LASI			RASI			LPSI			RPSI			LLAT			RLAT			LF1			LF2			LF3			LTHI			LKNE			LMEK			RF1			RF2			RF3			RTHI			RKNE			RMEK			LT1			LT2			LT3			LTIB			LANK			LMM			RT1			RT2			RT3			RTIB			RANK			RMM			LHEE			LSTL			LLCA			LTOE			LCM5			RHEE			RSTL			RLCA			RTOE			RCM5
		X1	Y1	Z1	X2	Y2	Z2	X3	Y3	Z3	X4	Y4	Z4	X5	Y5	Z5	X6	Y6	Z6	X7	Y7	Z7	X8	Y8	Z8	X9	Y9	Z9	X10	Y10	Z10	X11	Y11	Z11	X12	Y12	Z12	X13	Y13	Z13	X14	Y14	Z14	X15	Y15	Z15	X16	Y16	Z16	X17	Y17	Z17	X18	Y18	Z18	X19	Y19	Z19	X20	Y20	Z20	X21	Y21	Z21	X22	Y22	Z22	X23	Y23	Z23	X24	Y24	Z24	X25	Y25	Z25	X26	Y26	Z26	X27	Y27	Z27	X28	Y28	Z28	X29	Y29	Z29	X30	Y30	Z30	X31	Y31	Z31	X32	Y32	Z32	X33	Y33	Z33	X34	Y34	Z34	X35	Y35	Z35	X36	Y36	Z36	X37	Y37	Z37	X38	Y38	Z38	X39	Y39	Z39	X40	Y40	Z40	X41	Y41	Z41	X42	Y42	Z42	X43	Y43	Z43	X44	Y44	Z44	X45	Y45	Z45	X46	Y46	Z46	X47	Y47	Z47

474	4.73	NaN	NaN	NaN	NaN	NaN	NaN	2574.6	1330.1	-50.509	2615.4	1184.1	-57.987	2552.5	1381.1	-264.58	2475.9	1349.9	133.17	2405.9	1311.8	48.028	2656.5	906.2	-154.92	2628.9	915.41	48.325	2475.7	921.24	-114.05	2462.9	925.93	-40.716	2594.4	966.6	-214.12	2542.8	969.42	83.107	2616.7	628.81	-199.31	2608.1	673.46	-207.98	2585.1	626.15	-213.1	NaN	NaN	NaN	2569.3	422.79	-170.58	NaN	NaN	NaN	2644.6	636.67	77.515	2659.2	675.03	85.063	2601.1	656.46	77.148	2675.7	577.78	109.69	2740.9	474.89	26.431	NaN	NaN	NaN	2413.5	320.7	-189.01	2473.3	321.75	-174.56	2439.1	357.94	-188.4	2410	232.74	-208.39	2242.1	151.95	-158.12	2262.1	155.09	-71.794	2731.5	323.44	41.976	2751.5	367.6	24.914	2705.1	368.35	46.879	2756.4	252.15	78.702	2728.7	73.858	19.849	2729.8	94.914	-66.445	2194.4	171.47	-110.73	2241.8	131.1	-75.159	2228.8	127.21	-151.33	2318.2	48.58	-104.55	2303.6	43.725	-152.73	2673.8	67.486	-15.194	2729.5	59.587	-63.73	2735.8	49.116	14.407	2853.6	54.807	-30.699	2838.2	35.489	24.872
475	4.74	NaN	NaN	NaN	NaN	NaN	NaN	2585.6	1330.9	-49.832	2627.4	1185.3	-57.639	2560.6	1381.4	-264.13	2488.3	1349.8	134.66	2417.9	1311.1	49.957	2667.8	906.38	-155.12	2642.3	916.43	48.048	2487.7	921.91	-112.87	2475.7	927.05	-39.458	2606	967.25	-214.05	2556.2	971.39	83.57	2628.7	629.06	-200.63	2619.4	673.71	-208.58	2596.5	625.74	-214.01	NaN	NaN	NaN	2582.7	422.64	-173.54	NaN	NaN	NaN	2654.5	636.71	76.75	2673.9	676.96	84.301	2615.5	658.97	79.736	2691.8	579.22	109.33	2751	474.22	24.546	NaN	NaN	NaN	2425.4	323.91	-190.32	2484.9	323.75	-176.5	2451.5	360.86	-189.54	2419.5	236.54	-210.98	2251.6	157.05	-158.66	2272.7	158.93	-72.752	2738.3	322.74	40.074	2759.3	366.4	23.121	2712.9	368.34	45.228	2761	250.97	77.286	2729.5	73.681	18.578	2730	94.068	-67.338	2205.5	178.41	-110.71	2251.7	136.27	-75.758	2237.5	132.93	-152.07	2321	48.502	-104.21	2306.4	44.17	-151.56	2674.7	67.924	-15.646	2729.5	58.63	-64.114	2736.4	49.163	13.599	2854.2	53.795	-31.612	2838.4	36.37	24.365
476	4.75	NaN	NaN	NaN	NaN	NaN	NaN	2596.7	1331.7	-49.347	2639.4	1186.4	-57.473	2568.9	1382	-263.65	2500.8	1349.8	136.06	2430.3	1311.1	52.004	2678.8	906.59	-155.29	2655.5	917	47.751	2499.3	922.45	-111.61	2488.1	928.1	-38.029	2616.7	968.23	-213.55	2569.6	973.02	84.119	2640.4	629.38	-201.92	2630.8	673.95	-209.26	2608.3	626.41	-215.08	NaN	NaN	NaN	2596.1	422.65	-176.74	NaN	NaN	NaN	2664.5	636.75	75.985	2687.3	676.79	82.97	2629.2	657.73	80.597	2705.3	578.54	107.71	2760.3	473.19	22.076	NaN	NaN	NaN	2437.3	326.86	-191.76	2497.4	325.46	-179.29	2464.2	363.37	-191.18	2429.3	239.66	-214.31	2262.2	161.83	-159.45	2284.3	162.99	-73.873	2744	322.23	38.3	2766.2	365.53	21.061	2719.6	368.76	42.821	2765.3	250.3	75.664	2730.2	73.905	17.626	2730.8	93.351	-68.534	2217.6	184.95	-111.14	2262.3	140.84	-76.626	2246.9	138.24	-152.67	2324.3	48.566	-103.88	2309.9	45.159	-151.32	2675.3	68.508	-16.028	2730	58.004	-65.009	2737.1	49.276	13.014	2854.9	53.585	-32.376	2838.7	36.458	24.267
477	4.76	NaN	NaN	NaN	NaN	NaN	NaN	2607.6	1332.5	-48.914	2651.3	1187.5	-57.423	2577.4	1382.6	-263.11	2513.6	1350	137.44	2442.3	1310.6	54.3	2689.5	906.81	-155.57	2668.4	917.11	47.538	2510.6	923.77	-110.28	2500	929.25	-36.214	2626.7	969.09	-213.19	2583.1	974.27	84.756	2652	629.68	-203.42	2642	674.3	-210.14	2619.7	626.47	-215.99	NaN	NaN	NaN	2610.3	423.23	-180.24	NaN	NaN	NaN	2674.5	636.79	75.221	2699.2	675.58	81.374	2640.7	657.3	79.573	2716.7	576.9	105.6	2769	472.21	19.363	NaN	NaN	NaN	2449.9	329.55	-193.69	2510.2	327.02	-182.38	2477.2	365.72	-193.09	2440.8	242.72	-217.2	2274	166.2	-160.48	2296.5	165.93	-75.123	2749.4	322.18	36.333	2772.5	364.83	18.952	2725.3	369.02	40.356	2769.1	249.94	74.132	2730.8	74.196	16.71	2731.1	92.864	-69.232	2230.6	191.63	-112.38	2273.3	145.95	-77.681	2257.8	143.7	-154.43	2327.4	48.975	-104.03	2313.7	46.248	-151.34	2675.8	68.979	-16.258	2729.8	57.335	-65.419	2737.6	49.41	12.251	2855.3	53.139	-33.556	2838.9	36.817	23.453
478	4.77	NaN	NaN	NaN	NaN	NaN	NaN	2618.7	1333.3	-48.567	2662.9	1188.6	-57.545	2585.9	1383.2	-262.57	2526.6	1350.4	138.8	2454.6	1310.6	56.185	2699.8	906.99	-155.95	2680.9	916.77	47.373	2521.4	924.31	-107.93	2511.7	931.09	-34.425	2636.6	969.87	-212.79	2596.8	974.87	85.549	2663.7	629.96	-205.31	2652.8	674.5	-211.17	2631	626.59	-217.31	NaN	NaN	NaN	2624.4	423.37	-183.71	NaN	NaN	NaN	2684.4	636.83	74.456	2709.1	673.53	79.477	2651.5	656.99	78.465	2725.5	574.42	103.12	2777.3	471.19	16.665	NaN	NaN	NaN	2463.1	331.77	-196.08	2523.6	328.38	-185.6	2490.9	367.58	-195.53	2453	244.86	-219.63	2286.5	170.77	-162.34	2308.7	169.34	-77.393	2754.6	322.22	34.492	2778.5	364.2	16.769	2731.2	369.55	38.305	2773.1	249.86	72.926	2731.8	74.895	16.321	2731.2	92.541	-69.828	2244.5	198.49	-114.56	2284.6	151.11	-79.145	2269.2	148.78	-155.93	2331.4	50.291	-103.97	2317.7	47.599	-150.83	2676.5	69.5	-16.636	2730	56.854	-66.065	2738.1	49.629	11.734	2856	52.958	-34.777	2839.5	36.633	22.637
479	4.78	NaN	NaN	NaN	NaN	NaN	NaN	2629.4	1334.3	-48.31	2674.4	1189.7	-57.752	2594.6	1383.8	-261.99	2539.6	1350.7	140.1	2466.8	1310.7	58.331	2709.9	907.19	-156.38	2693	916.18	47.187	2532.1	925.56	-106.79	2522.8	931.7	-31.99	2645.8	970.08	-212.73	2610.4	974.87	86.238	2675.2	630.82	-207.28	2663.6	674.89	-212.57	2642.4	627.28	-218.98	NaN	NaN	NaN	2639.1	423.74	-187.18	NaN	NaN	NaN	2694.4	636.88	73.691	2718	671.41	78.314	2660	656.33	76.746	2732.5	572.17	100.87	2784.8	470.24	14.038	NaN	NaN	NaN	2477.2	333.77	-198.85	2537.7	329.73	-188.82	2505.2	369.37	-198.1	2466.1	246.63	-222.2	2299.4	175.13	-164.36	2321.3	173.72	-78.799	2759.8	321.97	32.858	2784.1	363.52	14.59	2736.9	369.38	36.776	2777.5	249.47	71.515	2732.4	75.186	15.886	2731.5	92.414	-70.626	2259.3	205.79	-117.02	2297.1	156.82	-81.387	2281	154.17	-157.55	2337	52.737	-103.77	2322.2	49.201	-150.06	2676.6	69.751	-16.12	2730	56.449	-66.494	2738	49.835	11.319	2856.1	52.631	-34.916	2839.4	37.316	22.347
480	4.79	NaN	NaN	NaN	NaN	NaN	NaN	2640.2	1335.3	-48.053	2685.5	1190.8	-58.028	2603.3	1384.4	-261.39	2552.5	1351.4	141.43	2478.7	1311	60.456	2719.6	907.45	-156.84	2704.7	915.73	46.831	2542.2	926.52	-104.62	2533.7	933.05	-30.958	2655.3	970.29	-212.86	2623.9	974.56	86.886	2686.9	631.68	-209.07	2673.9	675.12	-214.52	2654	627.69	-220.51	NaN	NaN	NaN	2654.4	424.15	-190.64	NaN	NaN	NaN	2704.4	636.92	72.927	2725.7	670.44	77.452	2667.3	655.29	75.307	2738.7	570.69	99.116	2791.7	469.54	11.866	NaN	NaN	NaN	2492.1	335.57	-201.53	2552.8	330.97	-192.01	2520.5	371.03	-201.22	2480.9	248.16	-224.47	2313	179.53	-166.4	2336	177.91	-82.498	2764.9	321.65	31.296	2789.3	362.77	12.627	2742.8	369.36	35.832	2782.5	248.97	69.5	2732.9	75.375	15.536	2731	92.67	-71.03	2275.6	213.17	-119.55	2310.5	163.06	-83.196	2293.5	160.01	-159.54	2342.5	56.626	-104.13	2327.8	51.319	-148.74	2676.9	70.493	-16.692	2729.9	56.273	-66.647	2739.6	50.131	11.169	2856.3	52.498	-35.361	2839.7	36.904	21.941
